<svg xmlns="http://www.w3.org/2000/svg" version="1.1" xmlns:xlink="http://www.w3.org/1999/xlink" xmlns:svgjs="http://svgjs.com/svgjs" width="412" height="732" preserveAspectRatio="none" viewBox="0 0 412 732"><g mask="url(&quot;#SvgjsMask1044&quot;)" fill="none"><rect width="412" height="732" x="0" y="0" fill="rgba(0, 0, 0, 1)"></rect><path d="M164.13 391.35 a38.07 38.07 0 1 0 76.14 0 a38.07 38.07 0 1 0 -76.14 0z" fill="#d3b714"></path><path d="M-2.64 453.11a4.72 4.72 0 1 0 8.66 3.76z" fill="#037b0b"></path><path d="M72.05 82.79 a26.03 26.03 0 1 0 52.06 0 a26.03 26.03 0 1 0 -52.06 0z" stroke="#d3b714"></path><path d="M342.29 266.05L377.43 266.05L377.43 301.19L342.29 301.19z" stroke="#e73635"></path><path d="M93.04 560.98L105.42 560.98L105.42 601.53L93.04 601.53z" fill="#037b0b"></path><path d="M327.72 439.13L339.93 439.13L339.93 473.22L327.72 473.22z" stroke="#037b0b"></path><path d="M46.03 111.96L59.89 111.96L59.89 125.82L46.03 125.82z" fill="#037b0b"></path><path d="M396.46 47.81L428.6 47.81L428.6 79.95L396.46 79.95z" fill="#037b0b"></path><path d="M118.61 171.87L155.8 171.87L155.8 212.03L118.61 212.03z" stroke="#037b0b"></path><path d="M363.88 253.47L391.89 253.47L391.89 281.48L363.88 281.48z" fill="#d3b714"></path><path d="M338.84 423.02L370.39 423.02L370.39 423.65L338.84 423.65z" stroke="#d3b714"></path><path d="M117.45 114.23a30.19 30.19 0 1 0 0.73-60.38z" fill="#d3b714"></path><path d="M205.08 154.22L214.84 154.22L214.84 171.9L205.08 171.9z" fill="#d3b714"></path><path d="M-3.91 43.99 a7.61 7.61 0 1 0 15.22 0 a7.61 7.61 0 1 0 -15.22 0z" stroke="#e73635"></path><path d="M290.13 129.84 a3.19 3.19 0 1 0 6.38 0 a3.19 3.19 0 1 0 -6.38 0z" fill="#e73635"></path><path d="M121.91 585.24L145.24 585.24L145.24 608.57L121.91 608.57z" stroke="#037b0b"></path><path d="M157.43 495.82L164 495.82L164 529L157.43 529z" stroke="#037b0b"></path><path d="M299.73 675.75 a29.06 29.06 0 1 0 58.12 0 a29.06 29.06 0 1 0 -58.12 0z" fill="#d3b714"></path><path d="M78.79 347.7L103.35 347.7L103.35 372.26L78.79 372.26z" stroke="#037b0b"></path><path d="M184.41 96.17a24.69 24.69 0 1 0-47.69 12.8z" stroke="#e73635"></path><path d="M340.87 677.62L347.1 677.62L347.1 685.04L340.87 685.04z" stroke="#d3b714"></path><path d="M294.5 50.62L295.33 50.62L295.33 51.45L294.5 51.45z" fill="#e73635"></path><path d="M37.29 604.23L68.28 604.23L68.28 635.22L37.29 635.22z" stroke="#037b0b"></path></g><defs><mask id="SvgjsMask1044"><rect width="412" height="732" fill="#ffffff"></rect></mask></defs></svg>