<svg xmlns="http://www.w3.org/2000/svg" version="1.1" xmlns:xlink="http://www.w3.org/1999/xlink" xmlns:svgjs="http://svgjs.com/svgjs" width="1920" height="1080" preserveAspectRatio="none" viewBox="0 0 1920 1080"><g mask="url(&quot;#SvgjsMask1030&quot;)" fill="none"><rect width="1920" height="1080" x="0" y="0" fill="rgba(0, 0, 0, 1)"></rect><path d="M1126.15 767.35L1129.5 767.35L1129.5 770.7L1126.15 770.7z" fill="#d3b714"></path><path d="M830.98 12.94L910.57 12.94L910.57 113.97L830.98 113.97z" fill="#e73635"></path><path d="M654.12 899.23a12.69 12.69 0 1 0 4.69-24.94z" fill="#037b0b"></path><path d="M892.26 193.12 a28.77 28.77 0 1 0 57.54 0 a28.77 28.77 0 1 0 -57.54 0z" fill="#d3b714"></path><path d="M1257 677.58 a39.49 39.49 0 1 0 78.98 0 a39.49 39.49 0 1 0 -78.98 0z" fill="#e73635"></path><path d="M477.91 995.44L546.12 995.44L546.12 1063.65L477.91 1063.65z" fill="#e73635"></path><path d="M406.92 494.4 a81.58 81.58 0 1 0 163.16 0 a81.58 81.58 0 1 0 -163.16 0z" stroke="#037b0b"></path><path d="M216.66 567.56a7.65 7.65 0 1 0-14.25 5.59z" stroke="#d3b714"></path><path d="M107.75 290.64L156.44 290.64L156.44 396.81L107.75 396.81z" fill="#d3b714"></path><path d="M1679.29 928.43 a60.31 60.31 0 1 0 120.62 0 a60.31 60.31 0 1 0 -120.62 0z" fill="#037b0b"></path><path d="M1776.25 199.7a93.48 93.48 0 1 0 27.01-185z" fill="#037b0b"></path><path d="M1749.97 414.3L1772.52 414.3L1772.52 515.86L1749.97 515.86z" fill="#d3b714"></path><path d="M693.7 251.89L794.02 251.89L794.02 352.21L693.7 352.21z" stroke="#d3b714"></path><path d="M1110.06 85.65L1184.47 85.65L1184.47 160.06L1110.06 160.06z" fill="#037b0b"></path><path d="M1262.98 502.33a57.46 57.46 0 1 0-48.25 104.3z" stroke="#d3b714"></path><path d="M312.15 1027.79a42.61 42.61 0 1 0 80.88 26.86z" stroke="#d3b714"></path><path d="M198.58 177.25L293.85 177.25L293.85 272.52L198.58 272.52z" stroke="#e73635"></path><path d="M346.13 896.44 a93.58 93.58 0 1 0 187.16 0 a93.58 93.58 0 1 0 -187.16 0z" fill="#037b0b"></path><path d="M1126.66 1043.63L1152.25 1043.63L1152.25 1069.22L1126.66 1069.22z" fill="#037b0b"></path><path d="M1778.61 375.14a46.23 46.23 0 1 0-37.82-84.37z" fill="#037b0b"></path><path d="M861.8 644.19a78.18 78.18 0 1 0 39.45 151.3z" stroke="#d3b714"></path><path d="M725.69 170.71 a27.42 27.42 0 1 0 54.84 0 a27.42 27.42 0 1 0 -54.84 0z" fill="#d3b714"></path><path d="M1167.92 782.5L1217.44 782.5L1217.44 868.72L1167.92 868.72z" fill="#037b0b"></path></g><defs><mask id="SvgjsMask1030"><rect width="1920" height="1080" fill="#ffffff"></rect></mask></defs></svg>